<svg width="128" height="128" viewBox="0 0 128 128" xmlns="http://www.w3.org/2000/svg">
  <!-- Background circle -->
  <circle cx="64" cy="64" r="60" fill="#1a73e8" stroke="#1557b0" stroke-width="4"/>
  
  <!-- Jeep/Beach theme -->
  <!-- Sun -->
  <circle cx="100" cy="28" r="12" fill="#ffd700"/>
  <line x1="100" y1="16" x2="100" y2="8" stroke="#ffd700" stroke-width="2"/>
  <line x1="100" y1="40" x2="100" y2="48" stroke="#ffd700" stroke-width="2"/>
  <line x1="88" y1="28" x2="80" y2="28" stroke="#ffd700" stroke-width="2"/>
  <line x1="112" y1="28" x2="120" y2="28" stroke="#ffd700" stroke-width="2"/>
  <line x1="91" y1="19" x2="85" y2="13" stroke="#ffd700" stroke-width="2"/>
  <line x1="109" y1="37" x2="115" y2="43" stroke="#ffd700" stroke-width="2"/>
  <line x1="91" y1="37" x2="85" y2="43" stroke="#ffd700" stroke-width="2"/>
  <line x1="109" y1="19" x2="115" y2="13" stroke="#ffd700" stroke-width="2"/>
  
  <!-- Jeep silhouette -->
  <rect x="30" y="70" width="68" height="20" rx="10" fill="#2d2d2d"/>
  <rect x="35" y="60" width="58" height="15" rx="7" fill="#2d2d2d"/>
  <circle cx="45" cy="95" r="8" fill="#2d2d2d"/>
  <circle cx="83" cy="95" r="8" fill="#2d2d2d"/>
  
  <!-- Beach/waves -->
  <path d="M10 100 Q32 90 54 100 T98 100 T128 100 V128 H10 Z" fill="#87ceeb"/>
  <path d="M10 110 Q32 100 54 110 T98 110 T128 110 V128 H10 Z" fill="#4682b4"/>
  
  <!-- Letter J -->
  <text x="64" y="45" font-family="Arial, sans-serif" font-size="24" font-weight="bold" text-anchor="middle" fill="white">J</text>
</svg>